IKResults
version=1
nRows=13
nColumns=40
inDegrees=yes

Units are S.I. units (second, meters, Newtons, ...)
Angles are in degrees.

endheader
time	pelvis_tilt	pelvis_list	pelvis_rotation	pelvis_tx	pelvis_ty	pelvis_tz	hip_flexion_r	hip_adduction_r	hip_rotation_r	knee_angle_r	knee_angle_r_beta	ankle_angle_r	subtalar_angle_r	mtp_angle_r	hip_flexion_l	hip_adduction_l	hip_rotation_l	knee_angle_l	knee_angle_l_beta	ankle_angle_l	subtalar_angle_l	mtp_angle_l	lumbar_extension	lumbar_bending	lumbar_rotation	arm_flex_r	arm_add_r	arm_rot_r	elbow_flex_r	pro_sup_r	wrist_flex_r	wrist_dev_r	arm_flex_l	arm_add_l	arm_rot_l	elbow_flex_l	pro_sup_l	wrist_flex_l	wrist_dev_l
      0.96000000	     14.44946137	     -2.50923952	      3.62299455	     -0.17980072	      0.95274113	      1.45292748	    -15.51662929	      5.60300980	    -17.37918117	    -13.45254761	     -0.23479125	      9.96867444	      1.65607741	     -3.72540638	      1.14379991	      2.18644747	     -1.26573357	    -52.84787581	     -0.92236944	     10.82939010	     16.55144046	      9.48968930	    -23.57418597	      1.20568894	      0.14657099	     -4.59925434	    -14.57710346	     -2.90149862	     46.78372584	     89.95437384	      0.00000000	      0.00000000	      0.35218345	      7.54713718	     10.32439957	     20.96938449	     89.95437384	      0.00000000	      0.00000000
      0.97000000	     14.46613016	     -2.14412525	      3.29665688	     -0.17028426	      0.95254875	      1.45394031	    -16.29880676	      5.27618301	    -17.02442888	    -13.25612269	     -0.23136299	     10.30055401	      1.46607473	     -3.76620044	      1.97509548	      1.73738098	     -0.93325279	    -51.18568899	     -0.89335880	     11.14702844	     16.29549595	      8.99319462	    -23.60788943	      0.67437315	      0.44944622	     -4.55507718	    -14.66052863	     -3.50676093	     48.54161467	     89.95437384	      0.00000000	      0.00000000	     -0.53753273	      7.57194869	     10.66139946	     20.11654547	     89.95437384	      0.00000000	      0.00000000
      0.98000000	     14.52997740	     -1.72263279	      2.91792890	     -0.16035321	      0.95226279	      1.45496559	    -17.17006224	      4.86105855	    -16.71478404	    -13.04282624	     -0.22764026	     10.53805629	      1.04782411	     -3.84053032	      2.60792945	      1.25068643	     -0.48187169	    -49.29830410	     -0.86041772	     11.32574272	     15.95524910	      8.25798728	    -23.63343263	      0.05326661	      0.71060421	     -4.49165688	    -14.75605943	     -3.95990989	     50.20762438	     89.95437384	      0.00000000	      0.00000000	     -1.73000025	      7.69577116	     10.62557083	     19.63144794	     89.95437384	      0.00000000	      0.00000000
      0.99000000	     14.54796859	     -1.40965750	      2.51071269	     -0.15047636	      0.95176783	      1.45603286	    -17.97731370	      4.58566463	    -16.11700367	    -12.81233024	     -0.22361735	     10.77303362	      0.52836329	     -3.90432631	      3.27170021	      0.94472667	      0.14778753	    -47.28523524	     -0.82528304	     11.51910229	     15.80191612	      7.42341072	    -23.61883095	     -0.44364594	      0.99758657	     -4.40175648	    -14.89360660	     -4.23666202	     51.82335115	     89.95437384	      0.00000000	      0.00000000	     -2.83567291	      7.77764343	     10.79016350	     19.01351318	     89.95437384	      0.00000000	      0.00000000
      1.00000000	     14.12928377	     -1.40673383	      2.54472565	     -0.14087157	      0.95030862	      1.45680021	    -18.06395269	      4.66297024	    -16.22089041	    -13.01287011	     -0.22711743	     11.00726790	      0.29113389	     -3.87223903	      4.70281305	      1.05268834	      0.61322885	    -45.64650810	     -0.79668186	     11.58444447	     15.46373080	      7.25893831	    -23.10383592	     -0.50922721	      0.89543023	     -4.14178737	    -14.99795305	     -4.32649826	     53.06313916	     89.95437384	      0.00000000	      0.00000000	     -4.02906367	      7.90841532	     10.83706684	     18.57982503	     89.95437384	      0.00000000	      0.00000000
      1.01000000	     14.39238374	     -0.77067056	      1.73328335	     -0.13059292	      0.95007032	      1.45769069	    -19.07043172	      3.86194685	    -15.32450793	    -12.99068652	     -0.22673025	     11.62716667	     -0.43155839	     -3.91981229	      4.64443866	      0.30816324	      1.52706689	    -42.88814090	     -0.74853927	     11.75610132	     14.99744545	      6.70879533	    -23.33646128	     -1.41376894	      1.56387453	     -4.18975858	    -15.20315139	     -4.69090768	     54.62601898	     89.95437384	      0.00000000	      0.00000000	     -4.80262252	      7.85409008	     11.65528936	     17.53455609	     89.95437384	      0.00000000	      0.00000000
      1.02000000	     13.98353912	     -0.83709001	      1.80542446	     -0.12111497	      0.94847256	      1.45846555	    -19.15850868	      4.04872743	    -15.38873244	    -13.16519569	     -0.22977601	     11.78453495	     -0.66030858	     -3.88012148	      5.95630466	      0.55228410	      2.19141863	    -40.99012898	     -0.71541271	     11.63297663	     14.68248986	      6.57175820	    -22.89605071	     -1.40104110	      1.45829484	     -3.88847994	    -15.29249886	     -4.72858934	     55.75460164	     89.95437384	      0.00000000	      0.00000000	     -5.94058053	      8.00066846	     11.81738002	     17.15423708	     89.95437384	      0.00000000	      0.00000000
      1.03000000	     14.48630939	     -0.25069545	      0.74670155	     -0.11076505	      0.94852135	      1.45989075	    -20.50662089	      3.26533420	    -14.03178074	    -12.94082788	     -0.22586005	     11.87705969	     -1.71803709	     -3.86256614	      5.36856724	      0.10387035	      3.98385673	    -37.67341254	     -0.65752509	     11.15867070	     13.86899487	      5.70242069	    -23.40640308	     -2.37698199	      2.20728565	     -3.69504448	    -15.46585695	     -4.82394273	     56.98561310	     89.95437384	      0.00000000	      0.00000000	     -6.69133885	      7.86743598	     13.59073742	     16.26078459	     89.95437384	      0.00000000	      0.00000000
      1.04000000	     14.01543424	     -0.28969507	      0.69971612	     -0.10109082	      0.94666673	      1.46064889	    -20.55778428	      3.38717682	    -13.89172076	    -13.07118794	     -0.22813527	     12.28699143	     -2.08636381	     -3.83940179	      6.50036493	      0.24437693	      4.58586156	    -35.47098905	     -0.61908555	     10.86744389	     13.20407659	      5.45990865	    -22.86842535	     -2.42495874	      2.26947240	     -3.46125993	    -15.59332466	     -4.76528953	     57.92676238	     89.95437384	      0.00000000	      0.00000000	     -7.68439287	      7.96444719	     13.86409138	     15.71729713	     89.95437384	      0.00000000	      0.00000000
      1.05000000	     14.33447728	     -0.05305703	     -0.00826636	     -0.09084941	      0.94611604	      1.46209446	    -21.84477590	      3.25316972	    -11.56636863	    -12.52066347	     -0.21852680	     12.01519362	     -5.10866483	     -3.14335606	      6.34819543	      0.43171161	      7.02285186	    -32.59282856	     -0.56885217	      9.85021474	     12.00682427	     -0.30119671	    -23.16719988	     -2.96374272	      2.70239726	     -3.11059705	    -15.68775433	     -4.69009584	     58.80389853	     89.95437384	      0.00000000	      0.00000000	     -8.34392969	      7.90004222	     15.93746287	     14.73727602	     89.95437384	      0.00000000	      0.00000000
      1.06000000	     14.20046906	      0.25544736	     -0.38224033	     -0.08091517	      0.94466155	      1.46268411	    -22.19600986	      2.81512200	    -11.29874417	    -12.86659934	     -0.22456452	     12.61061787	     -5.28815646	     -3.05157444	      6.79305586	      0.23828799	      8.50712774	    -30.00003295	     -0.52359935	      8.99935475	     11.00587779	     -0.52140404	    -22.97885639	     -3.42376670	      2.90644912	     -2.86967990	    -15.78533899	     -4.63750119	     59.57526726	     89.95437384	      0.00000000	      0.00000000	     -8.98155431	      7.91935286	     17.07726888	     13.80503433	     89.95437384	      0.00000000	      0.00000000
      1.07000000	     14.18954221	      0.49663966	     -0.78082337	     -0.07068797	      0.94327335	      1.46332775	    -22.71955566	      2.43489790	    -10.95574068	    -13.16010914	     -0.22968723	     12.95205283	     -5.47912610	     -2.97872439	      7.01242464	      0.17412044	     10.37071412	    -27.40298627	     -0.47827234	      8.05537231	      9.60447226	     -0.82569862	    -22.90535194	     -3.83678765	      3.10582575	     -2.57289906	    -15.93645449	     -4.49749265	     60.23430352	     89.95437384	      0.00000000	      0.00000000	     -9.66433451	      7.90943968	     18.56452503	     13.05660401	     89.95437384	      0.00000000	      0.00000000
      1.08000000	     14.37787767	      0.68973711	     -1.24597718	     -0.06014647	      0.94210435	      1.46418606	    -23.54939870	      2.11011665	    -10.39217858	    -13.28711978	     -0.23190399	     13.13687130	     -5.71756863	     -2.81517773	      6.98129906	      0.28073184	     12.82587369	    -24.99655277	     -0.43627215	      7.21187751	      7.34429744	     -1.56417493	    -23.02865491	     -4.21758156	      3.33045450	     -2.30680797	    -16.04761406	     -4.33368720	     60.90475147	     89.95437384	      0.00000000	      0.00000000	    -10.36801424	      7.87799516	     20.38948355	     12.46566080	     89.95437384	      0.00000000	      0.00000000
